<?xml version="1.0" standalone="no"?>
<!DOCTYPE svg PUBLIC "-//W3C//DTD SVG 20010904//EN"
 "http://www.w3.org/TR/2001/REC-SVG-20010904/DTD/svg10.dtd">
<svg version="1.0" xmlns="http://www.w3.org/2000/svg"
 width="512.000000pt" height="512.000000pt" viewBox="0 0 512.000000 512.000000"
 preserveAspectRatio="xMidYMid meet">
<metadata>
Created by potrace 1.11, written by Peter Selinger 2001-2013
</metadata>
<g transform="translate(0.000000,512.000000) scale(0.100000,-0.100000)"
fill="#000000" stroke="none">
<path d="M2365 4943 c-99 -69 -223 -156 -276 -192 -53 -36 -241 -167 -419
-291 -177 -124 -326 -224 -332 -222 -5 1 -7 -1 -5 -5 3 -5 -32 -33 -77 -64
-103 -71 -665 -462 -867 -604 -85 -60 -157 -113 -161 -119 -4 -6 -8 -406 -8
-888 0 -752 2 -879 14 -891 8 -8 132 -97 275 -197 150 -104 258 -187 254 -193
-3 -6 -1 -7 5 -3 13 8 102 -49 102 -65 0 -6 3 -8 8 -5 4 2 52 -27 107 -66 55
-39 127 -90 160 -113 138 -95 200 -139 205 -144 3 -3 55 -39 115 -80 61 -41
112 -77 115 -81 3 -3 30 -22 60 -43 142 -95 185 -127 182 -137 -1 -7 2 -9 7
-6 6 4 139 -84 298 -195 158 -111 316 -222 350 -246 34 -23 68 -43 76 -43 15
0 62 33 697 475 228 160 415 288 417 285 1 -3 8 4 16 14 8 11 19 16 26 12 6
-4 10 -3 9 3 -2 5 123 98 277 205 154 107 294 205 310 216 157 111 380 267
470 328 61 42 113 81 117 86 4 6 8 407 8 891 l0 880 -45 30 c-24 17 -45 33
-45 38 0 4 -4 7 -9 7 -13 0 -225 149 -229 161 -2 5 -8 9 -14 9 -12 0 -212 139
-216 151 -2 5 -9 9 -15 9 -7 0 -38 20 -69 43 -31 23 -87 62 -123 87 -161 110
-250 174 -253 182 -2 4 -8 8 -14 8 -5 0 -46 26 -91 59 -98 69 -423 297 -557
389 -149 103 -175 123 -172 134 1 5 -2 7 -7 4 -5 -4 -27 6 -49 21 -271 191
-422 293 -433 293 -8 0 -95 -57 -194 -127z m388 -105 c106 -73 197 -136 202
-140 6 -5 132 -92 280 -195 149 -102 309 -214 357 -247 48 -34 117 -81 153
-106 36 -25 117 -81 180 -125 63 -44 290 -201 505 -349 l390 -270 0 -845 0
-846 -245 -170 c-135 -93 -260 -181 -278 -193 -17 -13 -174 -122 -347 -242
-173 -121 -333 -232 -355 -248 -22 -16 -133 -94 -248 -173 -114 -79 -286 -199
-383 -266 -96 -68 -179 -123 -184 -123 -4 0 -10 -4 -12 -8 -1 -4 -47 -39 -100
-76 -58 -39 -98 -74 -98 -84 0 -15 -2 -15 -10 -2 -6 9 -8 71 -5 150 2 74 7
248 10 385 3 138 8 304 10 370 2 66 7 235 10 375 4 140 8 289 10 330 4 86 -5
75 164 191 87 59 415 288 566 395 l59 42 73 -49 c40 -27 73 -53 73 -57 0 -4
-12 -14 -28 -23 -15 -9 -121 -81 -237 -159 -115 -78 -290 -196 -387 -262
l-178 -119 0 -595 c0 -582 0 -594 20 -614 18 -18 23 -19 53 -7 17 8 151 100
297 205 146 106 274 198 285 206 11 8 49 36 85 62 117 86 493 356 595 428 55
39 102 73 105 76 3 4 118 87 255 186 229 164 250 182 251 209 1 27 11 243 19
405 2 36 6 121 9 190 3 69 8 172 11 230 17 354 17 337 0 354 -38 38 -39 37
-448 -251 -120 -85 -224 -156 -231 -159 -15 -6 -127 66 -121 77 3 4 62 49 132
100 186 136 724 536 753 560 l25 21 -30 -18 c-26 -16 -420 -268 -560 -359
-162 -105 -227 -145 -235 -145 -4 0 -10 -3 -12 -7 -1 -5 -36 -30 -77 -56 l-73
-49 -64 44 c-35 23 -64 46 -64 49 0 4 170 126 377 271 208 144 388 272 400
283 29 25 22 60 -16 79 -14 8 -165 109 -336 224 -170 116 -392 266 -492 333
-100 68 -180 126 -178 130 2 3 -2 6 -9 6 -7 0 -88 51 -180 114 -91 63 -184
125 -206 139 -82 52 -315 214 -318 222 -2 4 -9 8 -15 9 -7 0 -43 22 -82 48
l-70 49 -335 -226 c-184 -124 -423 -285 -531 -358 -107 -73 -323 -218 -480
-324 -156 -105 -348 -235 -426 -288 -78 -52 -144 -104 -146 -114 -9 -31 -5
-35 459 -354 50 -34 167 -116 260 -181 198 -139 217 -153 433 -304 89 -63 173
-121 185 -129 131 -88 322 -224 324 -231 2 -5 8 -9 13 -9 6 0 54 -31 107 -68
117 -83 139 -95 155 -86 6 4 144 99 305 211 161 112 299 206 307 209 15 6 127
-65 123 -77 -2 -5 -145 -108 -318 -228 -173 -121 -339 -237 -368 -258 -29 -21
-59 -39 -67 -41 -11 -3 -75 33 -110 61 -5 5 -63 43 -127 86 -65 43 -115 82
-110 86 4 5 2 5 -4 2 -6 -4 -29 6 -50 21 -41 30 -655 444 -809 546 -49 33 -92
62 -95 66 -3 3 -30 21 -60 40 -30 19 -57 37 -60 40 -5 5 -558 377 -636 428
-20 13 -34 20 -31 15 5 -8 228 -171 290 -213 23 -15 193 -138 212 -152 6 -5
66 -48 135 -97 69 -49 136 -98 150 -108 14 -10 158 -113 320 -230 162 -117
306 -222 318 -233 13 -11 26 -20 28 -20 2 0 71 -48 152 -107 81 -59 210 -151
287 -206 77 -55 142 -101 144 -103 3 -3 4 -30 16 -484 3 -140 8 -257 10 -259
3 -2 0 -12 -6 -22 -5 -11 -6 -19 -1 -19 4 0 9 -69 11 -152 2 -84 4 -189 6
-233 6 -128 7 -477 2 -482 -5 -4 -64 35 -278 185 -57 40 -185 130 -284 199
-466 324 -764 532 -830 578 -499 347 -673 470 -670 476 2 3 -2 6 -9 6 -7 0
-47 24 -89 53 l-77 54 0 846 0 847 187 129 c103 71 230 159 283 195 52 36 234
162 405 280 171 118 320 221 331 229 45 31 312 217 399 277 122 86 121 85 195
136 69 46 140 96 335 232 66 46 121 84 123 85 2 0 90 -60 195 -132z m-210
-370 c-1 -145 -4 -465 -7 -713 l-4 -449 -28 -23 c-50 -40 -392 -283 -398 -283
-3 0 -14 -7 -23 -16 -10 -9 -92 -68 -181 -130 l-164 -114 -69 48 c-37 26 -69
50 -69 53 0 5 359 259 695 492 l83 58 73 -41 c81 -46 73 -29 -17 41 l-54 41 0
459 c0 549 10 519 -132 417 -38 -26 -72 -48 -77 -48 -5 0 -11 -4 -13 -8 -1 -5
-190 -139 -418 -297 -228 -159 -520 -362 -649 -452 l-233 -162 -61 41 c-50 34
-58 43 -45 52 32 23 436 314 835 603 227 164 421 305 433 313 12 8 92 66 178
129 124 91 344 249 348 251 0 0 -1 -118 -3 -262z m272 77 c272 -197 663 -480
686 -498 8 -6 23 -16 32 -22 21 -13 799 -575 811 -586 10 -9 -31 -48 -51 -49
-7 0 -13 -3 -13 -7 0 -5 -12 -16 -25 -26 -24 -17 -25 -17 -72 16 -27 18 -236
165 -466 327 -230 162 -428 302 -440 310 -100 67 -223 155 -225 162 -2 4 -8 8
-12 8 -5 0 -62 38 -127 84 -151 107 -153 108 -184 93 l-24 -13 -5 -461 -5
-461 -53 -53 c-29 -28 -51 -54 -49 -56 2 -2 36 15 75 37 l71 41 68 -49 c37
-26 91 -64 118 -84 28 -19 104 -73 170 -119 387 -274 1280 -903 1282 -904 2
-1 5 -54 7 -119 3 -71 1 -114 -4 -111 -6 3 -8 0 -5 -7 3 -8 -26 -33 -73 -64
-77 -51 -79 -51 -103 -34 -13 9 -148 104 -299 210 -151 107 -329 232 -395 279
-66 46 -121 88 -123 92 -2 5 -8 9 -13 9 -6 0 -36 19 -67 42 -31 24 -83 60
-115 81 -32 22 -54 43 -51 49 4 7 2 8 -4 4 -10 -6 -62 23 -82 44 -3 3 -50 37
-104 75 -55 39 -143 100 -195 138 -53 37 -113 79 -133 92 -21 14 -38 29 -38
33 -4 57 -12 153 -15 175 -2 15 0 27 3 27 6 0 111 -71 207 -140 17 -12 182
-127 367 -255 185 -128 335 -235 333 -239 -3 -3 -2 -4 1 -2 5 4 189 -117 239
-156 6 -5 26 -19 45 -32 19 -12 132 -90 250 -172 292 -204 310 -216 310 -210
0 3 -28 24 -62 47 -57 38 -135 96 -148 109 -3 3 -12 10 -21 15 -25 15 -153
106 -324 230 -82 59 -170 123 -195 140 -25 17 -125 90 -223 161 -98 71 -188
136 -200 144 -12 8 -101 71 -197 140 -96 70 -218 157 -271 195 -53 38 -96 74
-97 79 -2 27 -21 1079 -24 1356 -1 48 2 62 12 58 5 -1 115 -79 245 -173z
m-515 -704 l0 -389 -197 -140 c-109 -76 -220 -155 -248 -174 -27 -19 -115 -81
-194 -137 -80 -56 -150 -100 -155 -98 -6 3 -134 90 -284 195 l-273 191 28 18
c15 10 33 22 38 26 6 5 102 73 215 152 113 79 230 161 260 183 30 21 163 114
295 207 132 93 299 211 370 262 72 50 133 92 138 93 4 0 7 -175 7 -389z m902
126 c810 -571 948 -669 952 -676 3 -4 -67 -59 -156 -122 -89 -63 -189 -133
-222 -157 -34 -23 -85 -59 -114 -79 l-53 -36 -62 43 c-34 24 -88 61 -119 83
-32 22 -58 44 -58 48 0 5 -5 9 -11 9 -10 0 -160 100 -262 176 -23 17 -95 68
-159 113 l-118 83 0 389 c0 214 2 389 5 389 2 0 172 -118 377 -263z m-657
-804 c-4 -49 -8 -94 -8 -101 0 -12 -168 -136 -412 -304 -44 -30 -107 -73 -139
-96 -33 -23 -64 -42 -69 -42 -9 0 -137 88 -137 94 0 2 122 89 270 192 149 104
319 224 378 266 59 42 111 77 116 78 4 0 5 -39 1 -87z m37 -227 c10 -7 14 -16
10 -20 -4 -4 -2 -6 3 -4 13 4 115 -61 115 -73 0 -5 6 -9 13 -9 6 0 35 -17 62
-38 28 -20 74 -53 103 -72 28 -19 52 -38 52 -42 0 -5 5 -8 11 -8 14 0 159
-103 156 -112 -2 -7 -544 -388 -552 -388 -3 0 -44 28 -92 62 -49 35 -104 74
-124 88 -20 14 -104 72 -187 130 -83 58 -151 107 -151 110 0 3 30 25 67 50 37
25 74 50 82 57 47 38 397 281 405 282 6 0 18 -6 27 -13z m2013 -48 c2 -18 6
-130 10 -248 4 -118 9 -242 10 -275 1 -33 6 -157 10 -275 4 -118 9 -223 11
-232 1 -10 0 -18 -4 -18 -4 0 -43 29 -87 64 l-80 64 -2 439 -2 438 62 41 c34
22 64 39 66 38 2 -2 5 -18 6 -36z m-217 -437 l-3 -109 -152 107 c-84 58 -153
108 -153 111 0 4 95 73 255 183 l50 34 3 -108 c1 -60 1 -158 0 -218z m-696
-281 c40 -28 96 -66 123 -85 28 -19 82 -56 120 -82 39 -27 108 -75 155 -107
47 -32 86 -60 88 -61 2 -2 -46 -37 -105 -78 -59 -41 -213 -149 -340 -239 -128
-89 -281 -197 -339 -238 -59 -41 -146 -102 -193 -136 -216 -152 -363 -254
-367 -254 -2 0 -3 176 -2 392 l3 391 55 38 c30 21 204 144 385 273 182 129
333 235 337 236 4 0 40 -23 80 -50z m817 -262 c20 -12 38 -25 41 -28 3 -3 22
-16 43 -29 20 -12 37 -26 37 -29 -1 -4 -211 -147 -468 -318 -257 -171 -659
-440 -895 -597 -235 -158 -429 -287 -432 -287 -3 0 -5 35 -5 78 l0 78 218 154
c119 85 269 191 332 235 63 45 216 154 340 241 124 88 288 205 365 259 77 54
192 136 255 181 63 46 119 83 124 84 5 0 25 -10 45 -22z"/>
<path d="M370 3346 c0 -2 11 -11 25 -20 14 -9 25 -13 25 -8 0 5 -11 14 -25 20
-14 6 -25 10 -25 8z"/>
<path d="M437 3029 c-11 -15 -14 -43 -12 -107 4 -95 14 -293 20 -387 2 -33 6
-118 10 -190 3 -71 8 -161 10 -200 2 -38 7 -124 10 -190 4 -66 8 -120 8 -121
9 -6 404 -296 442 -324 28 -20 145 -106 260 -191 116 -84 215 -157 220 -162 6
-4 88 -64 182 -133 99 -72 170 -130 166 -137 -3 -6 -1 -7 6 -3 6 4 54 -25 114
-69 56 -42 111 -83 122 -91 11 -8 61 -44 110 -80 50 -36 99 -73 111 -82 60
-49 164 -107 149 -82 -3 4 0 10 7 12 9 3 11 57 10 204 -1 109 -2 385 -2 611
l0 413 -42 31 c-24 16 -52 37 -63 45 -11 7 -139 98 -285 201 -146 103 -404
285 -575 405 -170 121 -319 226 -330 234 -11 8 -91 64 -177 125 -90 63 -155
116 -151 122 3 6 1 7 -5 3 -14 -8 -102 49 -102 66 0 6 -3 9 -6 6 -3 -3 -37 16
-76 43 -78 53 -109 60 -131 28z m146 -156 l36 -32 7 -373 c3 -205 7 -401 8
-436 l2 -63 -56 -46 c-30 -26 -63 -54 -73 -62 -18 -15 -19 -11 -12 139 6 165
10 271 21 630 4 124 7 239 8 257 1 35 5 34 59 -14z m365 -265 c34 -23 62 -45
62 -48 0 -4 -21 -21 -47 -38 -27 -18 -96 -66 -155 -107 l-108 -76 0 221 0 221
93 -66 c50 -36 120 -84 155 -107z m254 -162 c26 -17 48 -33 48 -36 -1 -3 -60
-48 -132 -100 -200 -145 -289 -210 -337 -246 -24 -19 -48 -31 -53 -28 -4 3 -7
0 -6 -7 2 -6 -3 -14 -9 -16 -10 -4 -13 22 -13 106 l0 111 73 50 c39 27 131 90
202 139 146 100 120 97 227 27z m181 -128 c26 -17 47 -35 47 -39 0 -6 -95 -77
-186 -139 -12 -8 -99 -70 -193 -138 l-171 -122 -80 56 c-44 31 -80 59 -80 63
0 8 147 107 425 285 139 89 151 95 170 81 11 -8 41 -29 68 -47z m164 -120 c17
-13 39 -29 50 -36 10 -7 115 -81 233 -164 118 -83 244 -171 280 -196 36 -25
93 -65 128 -90 l62 -44 0 -389 c0 -214 -2 -389 -5 -389 -2 0 -149 102 -327
227 -701 493 -965 679 -991 698 l-26 20 276 193 c153 105 280 192 283 192 3 0
20 -10 37 -22z m-542 -508 c185 -129 393 -275 463 -325 70 -49 163 -115 207
-145 133 -91 230 -161 236 -172 3 -5 9 -9 13 -9 11 2 116 -71 116 -80 0 -5 3
-8 8 -7 5 2 219 -142 252 -169 4 -3 1 -175 -3 -179 -1 -1 -177 119 -392 266
-214 148 -430 297 -480 331 -49 34 -160 109 -245 167 -85 58 -156 110 -158
114 -2 4 -8 8 -12 8 -5 0 -66 39 -134 88 -69 48 -182 125 -250 172 -96 65
-122 87 -114 97 6 7 14 13 18 13 5 0 32 16 62 35 29 20 58 34 65 33 6 -2 163
-109 348 -238z"/>
<path d="M4330 2036 c0 -2 8 -10 18 -17 15 -13 16 -12 3 4 -13 16 -21 21 -21
13z"/>
</g>
</svg>
